# xmcd
#
# Track frame offsets: 
#        150
#        15522
#        27785
#        44813
#        56928
#        70536
#        84039
#        100398
#        113652
#        126385
#
# Disc length: 1934 seconds
#
# Revision: 2
# Processed by: cddbd v1.5.2PL0 Copyright (c) Steve Scherf et al.
# Submitted via: ExactAudioCopyFreeDBPlugin 1.0
#
DISCID=7e078c0a
DTITLE=Kris Kristofferson - 1979 - Shake Hands With The Devil
DYEAR=1979
DGENRE=Country
TTITLE0=Shake Hands With The Devil
TTITLE1=Prove It To You One More Time Again
TTITLE2=Whiskey, Whiskey
TTITLE3=Lucky In Love
TTITLE4=Seadream
TTITLE5=Killer Barracuda
TTITLE6=Come Sundown
TTITLE7=Michoacan
TTITLE8=Once More With Feeling
TTITLE9=Fallen Angel
EXTD=
EXTT0=
EXTT1=
EXTT2=
EXTT3=
EXTT4=
EXTT5=
EXTT6=
EXTT7=
EXTT8=
EXTT9=
PLAYORDER=
